<svg id="likes" xmlns="http://www.w3.org/2000/svg" xmlns:xlink="http://www.w3.org/1999/xlink" viewBox="0 0 250.68 200.83"><defs><linearGradient id="linear-gradient" x1="125.92" y1="1.92" x2="125.92" y2="202.92" gradientUnits="userSpaceOnUse"><stop offset="0" stop-color="#999fff"/><stop offset="0.16" stop-color="#bf75d8"/><stop offset="0.28" stop-color="#efd139"/><stop offset="0.53" stop-color="#edcd40"/></linearGradient><linearGradient id="linear-gradient-2" x1="198.55" y1="44.28" x2="198.55" y2="74.92" gradientUnits="userSpaceOnUse"><stop offset="0" stop-color="#dd00a3"/><stop offset="0.96" stop-color="#2e0036"/></linearGradient><linearGradient id="linear-gradient-3" x1="108" y1="51.28" x2="108" y2="81.92" xlink:href="#linear-gradient-2"/><linearGradient id="linear-gradient-4" x1="173.97" y1="47.83" x2="173.97" y2="183.83" gradientUnits="userSpaceOnUse"><stop offset="0.11" stop-color="#332688"/><stop offset="0.26" stop-color="#332688"/><stop offset="0.48" stop-color="#3a2591"/><stop offset="0.87" stop-color="#6f1ccf"/></linearGradient><linearGradient id="linear-gradient-5" x1="115.64" y1="53.58" x2="115.64" y2="168.98" gradientUnits="userSpaceOnUse"><stop offset="0.15" stop-color="#00003f"/><stop offset="0.54" stop-color="#d1a487"/><stop offset="0.55" stop-color="#c89f89"/><stop offset="0.55" stop-color="#b0938d"/><stop offset="0.56" stop-color="#897f95"/><stop offset="0.57" stop-color="#5f699d"/><stop offset="0.67" stop-color="#edcd40"/><stop offset="0.68" stop-color="#efd139"/></linearGradient><linearGradient id="linear-gradient-6" x1="118.61" y1="83.92" x2="118.61" y2="168.7" gradientUnits="userSpaceOnUse"><stop offset="0" stop-color="#fff"/><stop offset="0.18" stop-color="#fff"/><stop offset="0.45" stop-color="#ff9087"/><stop offset="0.6" stop-color="#ff9087"/><stop offset="0.81" stop-color="#479087"/><stop offset="0.85" stop-color="#807e87"/><stop offset="0.95" stop-color="#ff5787"/></linearGradient><linearGradient id="linear-gradient-7" x1="126.21" y1="-6.21" x2="126.21" y2="148.42" gradientUnits="userSpaceOnUse"><stop offset="0" stop-color="#4d0094"/><stop offset="1" stop-color="#2e0036"/></linearGradient></defs><title>Artboard 1</title><path id="red" d="M72.1,151.25H13.61c-8.23-2-13.63-6.67-13-17.18V12.45C2.66,4.68,7.85.79,15.46-.08L237.35.38c9.43,1.62,13.44,7,13,15.32l.93,123c-1.23,8.82-6.19,12.78-14.39,12.54H172.83L122.7,200.92Z" fill="#df193e"/><path id="bgColor" d="M251.28,138.72c0,.17-.05.33-.08.49-.07.47-.15.91-.24,1.34-1.63,7.53-6.45,10.92-14.07,10.7H172.83l-3.69,3.66-2,2L165,159l-4,3.94-8.07,8-30.28,30L90.9,169.7l-6.47-6.35-3.09-3-4-3.94-2.51-2.46-1.37-1.35-.51-.5-.84-.82H13.61c-4.71-1.13-8.5-3.16-10.75-6.67a13.55,13.55,0,0,1-1.72-4,17.31,17.31,0,0,1-.53-3.46,22.16,22.16,0,0,1,0-3.05V12.45C2.67,4.68,7.85.8,15.47-.08L237.36.38c9.43,1.63,13.43,7,13,15.32l.05,6.49.18,24v.67l.09,11.86.1,12.85Z" fill="url(#linear-gradient)"/><g id="clouds"><path d="M228.84,35s9.77-2.44,13.43,0c3,2,1.22,7.33,1.22,7.33-4.17,4.77-110.41,4.78-107.45,0,0,0-3.66-2.45,0-6.11a13.22,13.22,0,0,1,8.55-3.66s-14.05-1.83-7.94-7.94,14-.61,14-.61l8.55,8.55s3-9.16,6.1-6.11,1.68,1.87,11,0c12.21-2.44,8.55,3.67,8.55,3.67l11,3.66s-4.88-5.5,5.49-5.5,12.83,4.28,12.83,4.28,14.65-2.44,12.21,3.66" fill="#f9f9f9" opacity="0.5"/><path d="M94.84,42s9.77-2.44,13.43,0c3,2,1.22,7.33,1.22,7.33C105.32,54.11-.92,54.12,2,49.34c0,0-3.66-2.45,0-6.11a13.22,13.22,0,0,1,8.55-3.66s-14-1.83-7.94-7.94,14-.61,14-.61l8.55,8.55s3.05-9.16,6.1-6.11,1.68,1.87,11,0c12.21-2.44,8.55,3.67,8.55,3.67l11,3.66s-4.88-5.5,5.49-5.5,12.83,4.28,12.83,4.28,14.65-2.44,12.21,3.66" fill="#f9f9f9" opacity="0.5"/></g><g id="bg2"><path d="M250.77,71.56l-99.1,3.36-5.34-9.11S150.22,49.2,163,49.2s23.72,7.72,23.72,7.72l11-6,12-2s18.69-10.44,29.12,0a99.53,99.53,0,0,0,11.88,9.79Z" fill="url(#linear-gradient-2)"/><path d="M46.33,72.8s3.89-16.61,16.61-16.61,23.73,7.73,23.73,7.73l11-6,12-2s18.68-10.44,29.12,0,30.88,22,30.88,22l-118,4Z" fill="url(#linear-gradient-3)"/></g><g id="bg1"><path d="M251.28,137.72c-.09.64-.2,1.25-.32,1.83-1.63,7.53-6.45,10.92-14.07,10.7H172.83l-3.69,3.66-2,2L165,158l-4,3.94-8.07,8H123.17l-26.5-62,21-39,5-5,14,5,22-6,10-4,12,4h10l12-3,6-5,6-4,13-6,11-11,9,4,2,7,.91.76v.17Z" fill="url(#linear-gradient-4)"/><polygon points="167.67 58.92 174.67 64.92 172.67 66.92 175.67 71.92 173.67 74.92 178.67 77.92 176.14 89.5 165.08 89.92 164.67 79.92 163.67 74.92 160.67 65.92 165.67 64.92 164.67 62.92 166.67 61.92 167.67 58.92" fill="#f9f9f9" opacity="0.05"/><polygon points="122.67 63.92 118.67 69.92 120.67 74.92 119.67 87.92 130.67 88.92 137.67 76.92 136.67 68.92 122.67 63.92" fill="#fff" opacity="0.06"/></g><path id="mid2" d="M230.67,101.92v48.33H172.83l-3.69,3.66-2,2L165,158l-83.69,1.34-4-3.94-5.23-5.13H13.61c-4.71-1.13-8.5-3.16-10.75-6.67a13.55,13.55,0,0,1-1.72-4,17.31,17.31,0,0,1-.53-3.46V59l3.06-1.07,7-8,11,8,13-14,92,42,38,4h25Z" fill="url(#linear-gradient-5)"/><path id="mid1" d="M236.67,127.92l-27,11L94.34,168.59l-3.44.11-9.56-9.38-4-3.94-5.23-5.13H13.61c-4.71-1.13-8.5-3.16-10.75-6.67a13.55,13.55,0,0,1-1.72-4,17.31,17.31,0,0,1-.53-3.46,22.16,22.16,0,0,1,0-3.05V96.82l1.53-1.23,166.53-4.67,37-7,20,9Z" fill="url(#linear-gradient-6)"/><path id="fg2" d="M251.28,138.72c-1.22,8.81-6.18,12.77-14.39,12.53H172.83L122.7,200.92,72.1,151.25H13.61c-6.28-1.51-10.91-4.61-12.47-10.67l.53-1.66,187-25s64-20.5-20.5-20.5l27.5-13.5,11-12,15-6,12-7,14-7,2.91-1.63Z" fill="url(#linear-gradient-7)"/><g id="fg"><path d="M35.3,151.25H13.61c-4.71-1.13-8.5-3.16-10.75-6.67a13.55,13.55,0,0,1-1.72-4,17.31,17.31,0,0,1-.53-3.46,22.16,22.16,0,0,1,0-3.05V117.75c4.74-2.34,10.94-1,19.06,7.17C32,137.22,35.49,145.62,35.3,151.25Z" fill="#030328"/><path d="M251.2,139a2,2,0,0,1,0,.34q-.09.6-.21,1.17c-1.63,7.53-6.45,10.92-14.07,10.7H173.64a2,2,0,0,0-1.39.57l-3.11,3.09-2,2L165,159l-4,3.94-8.07,8-28.9,28.63a2,2,0,0,1-2.77,0L90.9,169.7l-9.56-9.38-4-3.94-1.51-1.49a2,2,0,0,1,1.12-3.36l111.64-14.92c.12,0-12-2.66-11.91-2.69,3.43-1.13,66,5-.1-17.76-2-.67-2.7-2.83-.84-3.74l16.45-11.17a1.2,1.2,0,0,1,1.16-.1,13.8,13.8,0,0,0,2.67,1.16l10.44-11.39a2,2,0,0,1,.72-.5l14.45-5.78a2.1,2.1,0,0,0,.26-.13l11.82-6.89.11-.06,13.95-7h0a2,2,0,0,1,2.93,1.7Z" fill="#030328"/><path d="M59.9,151.25H21.65c0-.1,0-.21,0-.31V128.15c6.62-3.26,15.27-1.32,26.61,10A130.73,130.73,0,0,1,59.9,151.25Z" fill="#030328"/><path d="M78.9,153.92H74.82l-1.88-1.85-.84-.82H40.67V130.82c6.62-3.26,15.27-1.32,26.61,10A130.73,130.73,0,0,1,78.9,153.92Z" fill="#030328"/><path d="M115.33,151.39l-3.67,1.77-2.5-.84-1.11-.38L84.43,163.35l-3.09-3-4-3.94-2.51-2.46-1.37-1.35-2.59-5.36c4.54-5.82,13.18-7.83,28.31-2.56A132.66,132.66,0,0,1,115.33,151.39Z" fill="#030328"/><path d="M150.33,150.39l-3.67,1.77-2.5-.84-1.11-.38-23.62,11.41-3.09-3-4-3.94-2.51-2.46-1.37-1.35-2.59-5.36c4.54-5.82,13.18-7.83,28.31-2.56A132.66,132.66,0,0,1,150.33,150.39Z" fill="#030328"/><path d="M175.26,138.57l-3.08,2.68-2.63-.16-1.17-.07-19.79,17.22-3.77-2.11-4.91-2.74-3.07-1.71-1.68-1-3.9-4.49c2.84-6.81,10.65-11,26.63-9.92A133.36,133.36,0,0,1,175.26,138.57Z" fill="#030328"/></g><path id="heart" d="M123.49,56.87C112,44.54,100.6,44.2,89.36,58.94c-4,13.9-.79,24.77,7.59,33.43,8.06,8.2,16.79,15,26.54,19.65,10.09-5.06,19.21-10.88,25.85-18.61,8.84-9,13.08-19.36,9-32.06-3.1-7.27-8-11.59-14.83-12.76Q131.89,46.76,123.49,56.87Z" fill="#fff"/></svg>