<svg id="like" xmlns="http://www.w3.org/2000/svg" xmlns:xlink="http://www.w3.org/1999/xlink" viewBox="0 0 433.19 346.04"><defs><linearGradient id="linear-gradient" x1="216.39" y1="5.91" x2="216.39" y2="338.94" gradientUnits="userSpaceOnUse"><stop offset="0" stop-color="#bf74d9"/><stop offset="0.02" stop-color="#c47dc9"/><stop offset="0.09" stop-color="#d6a18c"/><stop offset="0.16" stop-color="#e4bb5f"/><stop offset="0.21" stop-color="#eccb43"/><stop offset="0.23" stop-color="#efd139"/></linearGradient><linearGradient id="linear-gradient-2" x1="232.08" y1="89.11" x2="427.72" y2="89.11" gradientUnits="userSpaceOnUse"><stop offset="0" stop-color="#cce0f4"/><stop offset="0.04" stop-color="#c3dcf2"/><stop offset="0.1" stop-color="#a9d2ee"/><stop offset="0.17" stop-color="#80c2e7"/><stop offset="0.26" stop-color="#47acde"/><stop offset="0.32" stop-color="#1e9cd7"/><stop offset="0.58" stop-color="#005b97"/></linearGradient><linearGradient id="linear-gradient-3" x1="51.08" y1="100.11" x2="246.72" y2="100.11" xlink:href="#linear-gradient-2"/><linearGradient id="linear-gradient-4" x1="262.83" y1="61.61" x2="262.83" y2="248.61" gradientUnits="userSpaceOnUse"><stop offset="0.02" stop-color="#544074"/><stop offset="0.09" stop-color="#3b2d73"/><stop offset="0.17" stop-color="#251c72"/><stop offset="0.26" stop-color="#141071"/><stop offset="0.37" stop-color="#090770"/><stop offset="0.53" stop-color="#020170"/><stop offset="0.98" stop-color="#000070"/></linearGradient><linearGradient id="linear-gradient-5" x1="301.58" y1="182.11" x2="301.58" y2="145.11" gradientUnits="userSpaceOnUse"><stop offset="0" stop-color="#360087"/><stop offset="0" stop-color="#34006e" stop-opacity="0.98"/><stop offset="0" stop-color="#32005a" stop-opacity="0.96"/><stop offset="0" stop-color="#30004a" stop-opacity="0.95"/><stop offset="0" stop-color="#2f003e" stop-opacity="0.94"/><stop offset="0" stop-color="#2e0038" stop-opacity="0.93"/><stop offset="0" stop-color="#2e0036" stop-opacity="0.93"/><stop offset="0" stop-color="#32043a" stop-opacity="0.93"/><stop offset="0.02" stop-color="#673d75" stop-opacity="0.92"/><stop offset="0.04" stop-color="#946ca7" stop-opacity="0.91"/><stop offset="0.05" stop-color="#b690cd" stop-opacity="0.91"/><stop offset="0.07" stop-color="#cfabe9" stop-opacity="0.9"/><stop offset="0.08" stop-color="#debbf9" stop-opacity="0.9"/><stop offset="0.09" stop-color="#e3c0ff" stop-opacity="0.9"/></linearGradient><linearGradient id="linear-gradient-6" x1="2.73" y1="159.61" x2="383.58" y2="159.61" gradientUnits="userSpaceOnUse"><stop offset="0" stop-color="#ff95a6"/><stop offset="0.03" stop-color="#d97faa"/><stop offset="0.06" stop-color="#b066af"/><stop offset="0.1" stop-color="#8b51b3"/><stop offset="0.14" stop-color="#6c3fb7"/><stop offset="0.18" stop-color="#5330ba"/><stop offset="0.23" stop-color="#4025bc"/><stop offset="0.29" stop-color="#321dbe"/><stop offset="0.36" stop-color="#2a18bf"/><stop offset="0.49" stop-color="#2817bf"/></linearGradient><linearGradient id="linear-gradient-7" x1="183.91" y1="157.11" x2="183.91" y2="241.11" gradientUnits="userSpaceOnUse"><stop offset="0.02" stop-color="#00f4ff"/><stop offset="0.06" stop-color="#00e2ef"/><stop offset="0.1" stop-color="#00d1e0"/><stop offset="0.16" stop-color="#00c6d6"/><stop offset="0.24" stop-color="#00bfd0"/><stop offset="0.46" stop-color="#00bdce"/></linearGradient><linearGradient id="linear-gradient-8" x1="216.39" y1="345.11" x2="216.39" y2="94.43" gradientUnits="userSpaceOnUse"><stop offset="0.6" stop-color="#030055"/><stop offset="0.75" stop-color="#050156"/><stop offset="0.8" stop-color="#0d0658"/><stop offset="0.83" stop-color="#1a0d5c" stop-opacity="0.99"/><stop offset="0.86" stop-color="#2d1962" stop-opacity="0.98"/><stop offset="0.89" stop-color="#45276a" stop-opacity="0.97"/><stop offset="0.91" stop-color="#633974" stop-opacity="0.96"/><stop offset="0.93" stop-color="#874e80" stop-opacity="0.95"/><stop offset="0.95" stop-color="#b1678d" stop-opacity="0.93"/><stop offset="0.97" stop-color="#df829c" stop-opacity="0.91"/><stop offset="0.98" stop-color="#ff95a6" stop-opacity="0.9"/></linearGradient><linearGradient id="linear-gradient-9" x1="430.05" y1="244.77" x2="140.34" y2="244.77" gradientUnits="userSpaceOnUse"><stop offset="1" stop-color="#16002a"/><stop offset="1" stop-color="#18012b"/><stop offset="1" stop-color="#20062f"/><stop offset="1" stop-color="#2d0f36" stop-opacity="0.99"/><stop offset="1" stop-color="#401b40" stop-opacity="0.98"/><stop offset="1" stop-color="#592b4d" stop-opacity="0.97"/><stop offset="1" stop-color="#773e5e" stop-opacity="0.96"/><stop offset="1" stop-color="#9c5571" stop-opacity="0.94"/><stop offset="1" stop-color="#c67188" stop-opacity="0.92"/><stop offset="1" stop-color="#f48ea0" stop-opacity="0.9"/><stop offset="1" stop-color="#ff95a6" stop-opacity="0.9"/></linearGradient><linearGradient id="linear-gradient-10" x1="149.82" y1="224.92" x2="2.73" y2="224.92" gradientUnits="userSpaceOnUse"><stop offset="1" stop-color="#16002a"/><stop offset="1" stop-color="#19022b"/><stop offset="1" stop-color="#220830" stop-opacity="0.99"/><stop offset="1" stop-color="#321239" stop-opacity="0.99"/><stop offset="1" stop-color="#492145" stop-opacity="0.98"/><stop offset="1" stop-color="#635" stop-opacity="0.97"/><stop offset="1" stop-color="#8a4a68" stop-opacity="0.95"/><stop offset="1" stop-color="#b5667f" stop-opacity="0.93"/><stop offset="1" stop-color="#e68599" stop-opacity="0.91"/><stop offset="1" stop-color="#ff95a6" stop-opacity="0.9"/></linearGradient></defs><title>Artboard 1</title><path id="red" d="M125.47,260.29l84.82,84.82,84.82-84.82h113.1c14-4.21,22.35-11.87,21.84-25.06V24.46c-1.9-12-7.76-20.45-21.2-21.85h-383C12.84,4,5.93,11.92,2.73,23.82V235.87q0,19.6,21.21,23.78Z" fill="#e0193f" stroke="#fff" stroke-miterlimit="10"/><path id="bgColor" d="M430.05,24.46V237.22a20.68,20.68,0,0,1-7,15.39c-3.69,3.34-8.74,5.84-14.85,7.68H295.11l-31.82,31.82-53,53-84.82-84.82-25.5-.16-8.73-.06-67.3-.42q-12.6-2.49-17.71-10.42c-.14-.22-.29-.45-.42-.69s-.2-.33-.29-.51l-.25-.47,0-.09-.06-.13c-.1-.2-.2-.4-.29-.61s-.17-.36-.25-.55-.22-.54-.32-.81-.23-.64-.33-1-.18-.58-.26-.87-.23-.86-.32-1.3-.16-.75-.22-1.13c0-.15-.06-.31-.08-.47v0s0,0,0,0,0,0,0,0v-.06a1.36,1.36,0,0,1,0-.17l0-.2L3,239.69c0-.06,0-.13,0-.19a5.61,5.61,0,0,1-.06-.59c0-.19,0-.39-.05-.59s0-.68-.06-1a.57.57,0,0,1,0-.13v-.07c0-.4,0-.8,0-1.21v-212C5.93,11.92,12.83,4,25.86,2.61h383C422.29,4,428.15,12.41,430.05,24.46Z" stroke="#fff" stroke-miterlimit="10" fill="url(#linear-gradient)"/><g id="clouds"><path d="M379.78,65c-3.09,8.21-6.25,16.34-20,11.27-12.71,4.66-18.49,1.54-18.17-8.44l-9.88,6.33-5.1,3.26c-12.75,2.77-17.17-.08-15.56-7-4.44,5.16-9.11,9.31-15,8.07-8.36,2.17-12.51-.95-15.51-5.5-2.48,5-6,9-15,8.08C258,83,251.87,81.4,247.4,75.62c-.3,4,.69,9.16-8.85,5.66l-6.14,3.93c-10.56,2.94-16.74-1-20.71-8.35-2.16,8-10.72,11.66-25.13,11.45C162.1,89,149.66,81.42,145,68.59,148.88,57.46,162.5,50,185.1,46.05c26-2.53,48.13-.65,64.11,8.35,10.61-11,26.36-15.27,45.43-15.18,20.83-1.64,34.72.86,36.12,10.83,10.31-5.95,21.18-8.95,32.93-7.18,15.67-4.67,26.35-2.43,33.36,4.88,20.16,1.89,25,6.2,13.22,13.14,11.71,5.1,8.51,9.69-7.18,13.86C385,79.76,378,75.88,379.78,65Z" fill="#fff" opacity="0.3"/><path d="M66.36,28c1-4.17,2.11-8.3,6.24-5.43,3.93-2.15,5.66-.44,5.43,4.69l3.09-3.07,1.6-1.58c3.91-1.18,5.23.37,4.65,3.91,1.42-2.57,2.89-4.62,4.68-3.87,2.58-1,3.8.72,4.66,3.13.81-2.52,1.94-4.53,4.68-3.88,2.3-.86,4.14.07,5.43,3.13.14-2.08-.1-4.72,2.77-2.74l1.92-1.9c3.25-1.32,5.08.81,6.2,4.69.76-4.06,3.41-5.8,7.8-5.42,7.46.14,11.16,4.25,12.41,10.94-1.31,5.65-5.56,9.21-12.49,10.84-8,.81-14.67-.59-19.43-5.52-3.36,5.46-8.22,7.36-14,7-6.37.45-10.57-1.1-10.87-6.26-3.22,2.87-6.57,4.2-10.12,3.07-4.84,2.11-8.06.75-10.11-3.15-6.11-1.35-7.53-3.66-3.86-7-3.5-2.85-2.47-5.15,2.36-7C65,20.24,67.05,22.37,66.36,28Z" fill="#fff" stroke="#fff" stroke-miterlimit="10" stroke-width="0.5" opacity="0.2"/></g><g id="bg2"><path d="M249.35,78.24c8.81-10.11,17.6-19.62,26.21-22.38l12.15,7.68,5.75-.64L301.13,52c6.46,3.76,10.73,9.42,14.71,15.34,4.48-7.43,9.59-14,17.26-17.26l16.62,14.07L379.13,52l27.49,13.42,21.1,17.91-17.9,27.49-72.24,17.26-105.5-3.2Z" fill="url(#linear-gradient-2)"/><path d="M68.35,89.24C77.16,79.13,86,69.62,94.56,66.86l12.15,7.68,5.75-.64L120.13,63c6.46,3.76,10.73,9.42,14.71,15.34,4.48-7.43,9.59-14,17.26-17.26l16.62,14.07L198.13,63l27.49,13.42,21.1,17.91-17.9,27.49-72.24,17.26-105.5-3.2Z" fill="url(#linear-gradient-3)"/></g><g id="bg1"><path d="M422.05,250.61H113.58l-.14-.66-2.76-12.64-2.5-11.47-11.6-53.23,8.91-17.5,9.79-19.22,9.3-18.28a116.37,116.37,0,0,1,7.88-12.18c4.15-5.4,8.46-9,13.12-8.82l8-12c9.75-2.55,22.29,1.52,35,6l28-5L232,80.71l2.85-.91h0l2.18-.7,1.55-.49,8,2.3,6,1.7,12,8,36-27,14,7,11-7,10,8,12-8c19.09,7.64,36.36,16.46,51,27a103.51,103.51,0,0,1,17.7-18.11,69.13,69.13,0,0,1,12.77-7.92V233.23C429.34,240.65,426.81,246.32,422.05,250.61Z" fill="url(#linear-gradient-4)"/><polygon points="326.2 64.3 325.24 70.52 317.9 76.82 322.85 86.07 326.68 88.78 325.56 82.24 326.84 73.95 328.69 74.46 344.14 78.74 326.2 64.3" fill="#fff" opacity="0.26"/><polygon points="326.63 66.74 341.9 78.22 335.89 84.38 344.9 94.95 346.67 104.79 335.82 117.92 333.74 175.26 252.74 192.78 290.31 107.8 288.9 99.93 294.3 84.73 326.63 66.74" fill="#fff" opacity="0.06"/><polygon points="236.52 79.86 253.83 94.11 268.08 94.11 252.81 132.8 212.08 150.11 236.52 79.86" fill="#fff" opacity="0.05"/><polygon points="253.08 145.11 350.08 145.11 296.08 182.11 253.08 145.11" fill="url(#linear-gradient-5)"/></g><g id="mid2"><path d="M383.58,233.61l-37.22,3.67L211,250.61l-30.45,3-5.13-.13-33.39-.84-42.78-1.07-2.23-.06-4.56-.11L6.22,249.23c-.14-.22-.29-.45-.42-.69s-.2-.33-.29-.51l-.25-.47,0-.09-.06-.13c-.1-.2-.2-.4-.29-.61s-.17-.36-.25-.55-.22-.54-.32-.81-.23-.64-.33-1-.18-.58-.26-.87-.23-.86-.32-1.3-.16-.75-.22-1.13c0-.15-.06-.31-.08-.47v0s0,0,0,0a.3.3,0,0,1,0-.13.5.5,0,0,1,0-.12l0-.2L3,239.69c0-.06,0-.13,0-.19a5.61,5.61,0,0,1-.06-.59c0-.19,0-.39-.05-.59s0-.68-.06-1a.57.57,0,0,1,0-.13v-.07c0-.4,0-.8,0-1.21V94.43L8.58,79.61l19-14,18,14,22-10,10.78,8.7,20.22,16.3,26,10,6.86,2.18,15.14,4.82,27,11,22,6,1.91.72h0l19.27,7.3,14.3,5.41,1.51.57,35,7,3.77,1.07,22.7,6.43.14,0,6.67,1.89,7.87,2.23,18.85,5.34,6.35,3.39,20.81,11.1,10.34,5.51,7.5,4Z" fill="url(#linear-gradient-6)"/><path d="M46.23,83.07l21.4-5.84a.28.28,0,0,1,.35.34L65.14,89.86a.29.29,0,0,0,.19.33L80.6,95a.28.28,0,0,1,.1.48l-6.56,5.62a.23.23,0,0,1-.12.06l-17.83,4a.25.25,0,0,0-.17.11l-4.94,6.91-5,7a.37.37,0,0,0,0,.11l-1,4.84a.27.27,0,0,1-.1.16l-8.92,6.94-16,12v0L3.55,157.7a.28.28,0,0,1-.47-.21V95.16a.29.29,0,0,1,0-.09l2-6,3-7.92a.28.28,0,0,1,.11-.13l9.91-6.94,0,0,8.8-7.82a.27.27,0,0,1,.37,0L46,83A.3.3,0,0,0,46.23,83.07Z" fill="#fff" opacity="0.38"/></g><g id="mid"><path d="M365.08,157.11v78l-20.93.35-183.72,3-26,.43-23.27.39-14.75.24-1,0-18.22.3-74,1.23H3.08v-.49s0,0,0,0v-.08l0-4.92-.22-51,0-8.55-.08-18.93Z" fill="url(#linear-gradient-7)"/><path d="M16.75,157.77c57,3.72,78.94,11.42,85.83,20.84-12.37,2.88-21.55,6.9-22,14,13.67,3.58,31,2.36,50-1,12.23-14.11-5.09-13.37-5-18,1.63-7.15,20.52-5.17,36-5,22.06-2.11,18,6,32,13,15.1.08,28.59-7.41,42-12,13.26-3.44,25.89-6.12,37-7L300.86,159l11.56-1.93Z" fill="#fff" opacity="0.3"/></g><path id="fg2" d="M430.05,94.43V237.22a20.68,20.68,0,0,1-7,15.39c-3.69,3.34-8.74,5.84-14.85,7.68H295.11l-31.82,31.82-53,53-84.82-84.82-25.5-.16-8.73-.06-67.3-.42q-12.6-2.49-17.71-10.42c-.14-.22-.29-.45-.42-.69s-.2-.33-.29-.51l-.25-.47,0-.09-.06-.13c-.1-.2-.2-.4-.29-.61s-.17-.36-.25-.55-.22-.54-.32-.81-.23-.64-.33-1-.18-.58-.26-.87-.23-.86-.32-1.3-.16-.75-.22-1.13c0-.15-.06-.31-.08-.47v0s0,0,0,0,0,0,0,0v-.06a1.36,1.36,0,0,1,0-.17l0-.2L3,239.69c0-.06,0-.13,0-.19a5.61,5.61,0,0,1-.06-.59c0-.19,0-.39-.05-.59s0-.68-.06-1a.57.57,0,0,1,0-.13v-.07c0-.4,0-.8,0-1.21v-.27l.33,0c3.65-.22,28.2-1.76,62.65-4.34,6.75-.5,13.89-1,21.33-1.63l4.51-.35,2.42-.19,14.65-1.19h0l.55,0c4.85-.4,9.79-.81,14.79-1.24l.31,0,4.76-.4c10-.86,20.21-1.77,30.5-2.73h0c34.51-3.22,69.86-7,100.44-11.09,26.06-3.52,48.65-7.32,64.33-11.31,17.78-4.52,26.68-9.29,21.64-14.19a18.39,18.39,0,0,0-5.38-3.24l-15.12-6.56-1.08-.47-1-.44c-10.31-4.51-17.29-7.89-22.12-10l-.16-.07,4.51-2.85,3.14-2,6.34-4.16,19.8-13,21.79-14.29,4.92-3.23h17l12-11,1.7-.57h0l13.27-4.42,7.12-4.18h0l9.87-5.81,6.47-5.35Z" fill="url(#linear-gradient-8)"/><g id="fg"><path d="M430.05,144.43v92.79a20.68,20.68,0,0,1-7,15.39c-3.69,3.34-8.74,5.84-14.85,7.68H295.11l-31.82,31.82-53,53-69.94-69.94,5.46-.49,1-.09,1.84-.16c9-.81,18-1.66,27.08-2.54l6.86-.68c8.47-.84,16.91-1.71,25.25-2.61,7.52-.81,15-1.65,22.25-2.5,17.56-2.06,34.26-4.24,49.27-6.51,2.95-.45,5.84-.91,8.65-1.36,15.06-2.44,28.07-5,38-7.62l.9-.24c15.57-4.19,23.38-8.59,19.47-13.09a9.74,9.74,0,0,0-2.21-1.82,25.36,25.36,0,0,0-3.57-1.85c-5.64-2.45-10.37-5.5-15.12-6.56-13-2.91-21.19-5.86-24.6-10.62q-.06-.47-.09-.9a15.18,15.18,0,0,1,0-2c.16-4.57,2.58-6.1,7.35-4.42.7-2.12,4-2,7-2s9.25-6.07,9.25-6.07l10.55-6.91L346,186.85l8.78-5.75,5-3.26,1.87-1.23h17l12-11,1.7-.57h0l13.27-4.42,4.68-2.75,2.44-1.43h0l9.87-5.81,6.47-5.35Z" fill="url(#linear-gradient-9)"/><path d="M149.82,284.65l-24.36-24.36-25.5-.16-8.73-.06-67.3-.42q-12.6-2.49-17.71-10.42c-.14-.22-.29-.45-.42-.69s-.2-.33-.29-.51l-.25-.47,0-.09-.06-.13c-.1-.2-.2-.4-.29-.61s-.17-.36-.25-.55-.22-.54-.32-.81-.23-.64-.33-1-.18-.58-.26-.87-.23-.86-.32-1.3-.16-.75-.22-1.13H3.08v-.49s0,0,0,0a.3.3,0,0,1,0-.13.5.5,0,0,1,0-.12l0-.2L3,239.69c0-.06,0-.13,0-.19a5.61,5.61,0,0,1-.06-.59c0-.19,0-.39-.05-.59s0-.68-.06-1a.57.57,0,0,1,0-.13v-.07c0-.4,0-.8,0-1.21V176.2l.08-.16.09-.2.36-.73c8.82-34,90.36,29.86,101.59,35.43s12.55,9.19,17.81,14.4c.55.54,1.08,1.08,1.62,1.63,1.88,2,3.67,4,5.37,6.05s3.26,4.14,4.74,6.31c1,1.5,2,3,2.94,4.6,1.37,2.3,2.63,4.65,3.79,7.08.32.67.63,1.35.94,2,.94,2.12,1.8,4.28,2.58,6.5a92.09,92.09,0,0,1,4,15.29c.13.78.26,1.57.37,2.37,0,.18.05.36.08.54C149.39,279.73,149.65,282.16,149.82,284.65Z" fill="url(#linear-gradient-10)"/><path d="M155.08,248.11c32-16,52.12,9.48,57,34h-57S123.08,264.11,155.08,248.11Z" fill="#16002a"/><path d="M287.53,267.87l-24.24,24.24H241.08s-22.31-12.55-11-26c2.22-2.66,5.76-5.35,11-8,15.76-7.88,28.64-5.7,38.23,1.48a38.23,38.23,0,0,1,4.21,3.65A45.6,45.6,0,0,1,287.53,267.87Z" fill="#16002a"/><path d="M340.43,260.29H295.11l-12.58,12.58a11.06,11.06,0,0,1,1-9.63,19.52,19.52,0,0,1,4.44-5,42.42,42.42,0,0,1,8.12-5.12,52.55,52.55,0,0,1,5.82-2.5c9.55-3.46,17.91-3.1,25-.24l.56.24A36.24,36.24,0,0,1,340.43,260.29Z" fill="#16002a"/></g><path id="heart" d="M215,97.48C229.13,80.69,246,75,266.3,83c14,5.31,21.77,15.31,24.74,29,4.73,11.54,2.51,25.19-3,39.83-11.9,27.11-38.6,48.3-73,66.39C160.18,190.76,130.8,156.4,138.36,112c5.62-13.71,12.49-26.5,30.78-30.77,19.27-4.15,34,2.08,45.26,16.29" fill="#fff" stroke="#fff" stroke-miterlimit="10"/></svg>